# xmcd
#
# Track frame offsets:
#       150
#       14872
#       28308
#       42577
#       54639
#       69023
#       82277
#       95709
#       108095
#       122363
#       137515
#       151301
#       164195
#       175197
#       189696
#       201350
#
# Disc length: 2823 seconds
#
# Revision: 1
# Processed by: cddbd v1.5.2PL0 Copyright (c) Steve Scherf et al.
# Submitted via: FreeDbEdit v0.1
#
DISCID=e90b0510
DTITLE=Nat King Cole - Straighten Up and Fly Right
DYEAR=1950
DGENRE=Acoustic - Blues - Easy Listening - Folk/Rock
TTITLE0=To a Wild Rose
TTITLE1=What Is This Thing Called Love
TTITLE2=Id Like to Make Love to You
TTITLE3=Oh,But I Do
TTITLE4=I Dont Know Why [I Just Do]
TTITLE5=Its Only on Paper
TTITLE6=Hit That Jive Jack
TTITLE7=If I Could Be Wiuth You
TTITLE8=Are You Fer It
TTITLE9=The Man I Love
TTITLE10=What Can I Say After I Say I Am Sorry
TTITLE11=Riffamarole
TTITLE12=Straighten Up and Fly Right
TTITLE13=Im in the Mood for Love
TTITLE14=Bring Another Drink
TTITLE15=Candy
EXTD=
EXTT0=
EXTT1=
EXTT2=
EXTT3=
EXTT4=
EXTT5=
EXTT6=
EXTT7=
EXTT8=
EXTT9=
EXTT10=
EXTT11=
EXTT12=
EXTT13=
EXTT14=
EXTT15=
PLAYORDER=
